#!OML:ASF H:\Martial Arts Walks\Project 1\Capture day 1\Session 1\male.ASF
:FULLY-SPECIFIED
:DEGREES
1626
root -4.1396 14.4914 -22.1432 5.62398 48.5043 1.86751
lowerback 16.0675 -0.308333 -7.55606
upperback -2.35443 -1.62657 2.76428
thorax -11.4084 -0.151615 7.8092
lowerneck 4.80259 -13.4991 -15.1351
upperneck 1.28785 -18.8745 11.2784
head 2.10874 -9.56255 5.22999
rclavicle 8.24956e-015 -3.57812e-015
rhumerus 5.87541 -10.2686 -64.5984
rradius 85.8822
rwrist 23.4181
rhand -48.0012 -34.6906
rfingers 7.12502
rthumb -20.6696 -63.61
lclavicle 8.24956e-015 -3.57812e-015
lhumerus -57.3804 -36.908 116.072
lradius 107.187
lwrist 76.3391
lhand 21.3546 41.0212
lfingers 7.12502
lthumb 45.7948 -295.799
rfemur -59.3118 -33.076 15.9567
rtibia 68.7845
rfoot -7.67224 2.47036
rtoes 6.68479
lfemur -21.4311 35.2304 -7.05356
ltibia 70.858
lfoot -28.4988 23.0558
ltoes -20.904
1627
root -4.14331 14.4755 -22.1747 5.38847 48.5598 1.70212
lowerback 16.067 -0.318432 -7.59738
upperback -2.3597 -1.64747 2.77478
thorax -11.4092 -0.158072 7.85051
lowerneck 4.83789 -13.5004 -15.1246
upperneck 1.23068 -18.8792 11.3105
head 2.08896 -9.56567 5.2425
rclavicle -2.69353e-014 2.82274e-014
rhumerus 5.73536 -10.4428 -64.825
rradius 85.9841
rwrist 23.3744
rhand -48.0051 -34.7269
rfingers 7.12502
rthumb -20.6733 -63.6459
lclavicle -2.69353e-014 2.82274e-014
lhumerus -57.359 -36.9692 116.158
lradius 107.196
lwrist 75.9839
lhand 21.5879 40.9046
lfingers 7.12502
lthumb 46.0113 -296.006
rfemur -59.2284 -33.0177 15.8926
rtibia 68.7505
rfoot -7.54144 2.43032
rtoes 6.40514
lfemur -21.5629 34.9791 -7.05313
ltibia 71.151
lfoot -28.646 23.2707
ltoes -20.4998
1628
root -4.14642 14.4594 -22.2045 5.13222 48.6092 1.50745
lowerback 16.0578 -0.32786 -7.60519
upperback -2.35852 -1.65912 2.79092
thorax -11.3996 -0.162963 7.87574
lowerneck 4.87151 -13.4973 -15.1174
upperneck 1.14755 -18.8768 11.3504
head 2.06187 -9.56509 5.25913
rclavicle 5.54609e-014 7.15625e-015
rhumerus 5.60195 -10.6281 -65.013
rradius 86.1043
rwrist 23.3718
rhand -48.0092 -34.7683
rfingers 7.12502
rthumb -20.6772 -63.6868
lclavicle 5.54609e-014 7.15625e-015
lhumerus -57.3363 -37.0452 116.25
lradius 107.182
lwrist 75.6984
lhand 21.7241 40.8059
lfingers 7.12502
lthumb 46.1377 -296.157
rfemur -59.1651 -32.9657 15.8751
rtibia 68.7348
rfoot -7.41759 2.35993
rtoes 6.2236
lfemur -21.687 34.782 -7.00763
ltibia 71.4588
lfoot -28.7807 23.449
ltoes -20.1476
1629
root -4.14858 14.4437 -22.2329 4.85529 48.6471 1.28701
lowerback 16.0403 -0.335325 -7.58053
upperback -2.35153 -1.66022 2.81144
thorax -11.381 -0.165562 7.88379
lowerneck 4.9028 -13.4898 -15.1104
upperneck 1.05384 -18.8674 11.3898
head 2.03109 -9.56095 5.27651
rclavicle 2.72335e-014 1.19271e-014
rhumerus 5.48035 -10.8222 -65.1654
rradius 86.2253
rwrist 23.4212
rhand -48.0169 -34.8057
rfingers 7.12502
rthumb -20.6847 -63.7234
lclavicle 2.72335e-014 1.19271e-014
lhumerus -57.3156 -37.1316 116.345
lradius 107.151
lwrist 75.5308
lhand 21.7366 40.7529
lfingers 7.12502
lthumb 46.1492 -296.215
rfemur -59.1095 -32.9211 15.897
rtibia 68.7265
rfoot -7.30454 2.27428
rtoes 6.12031
lfemur -21.7874 34.6505 -6.91702
ltibia 71.7652
lfoot -28.9097 23.591
ltoes -19.8623
1630
root -4.14961 14.4289 -22.26 4.56619 48.6707 1.05108
lowerback 16.0143 -0.340647 -7.52919
upperback -2.34112 -1.6521 2.83385
thorax -11.3558 -0.165993 7.87561
lowerneck 4.93122 -13.4788 -15.1008
upperneck 0.964168 -18.8527 11.4218
head 2.00028 -9.55405 5.29148
rclavicle -4.17448e-014 1.39149e-014
rhumerus 5.37478 -11.0221 -65.2897
rradius 86.3304
rwrist 23.523
rhand -48.0286 -34.8313
rfingers 7.12502
rthumb -20.6959 -63.7478
lclavicle -4.17448e-014 1.39149e-014
lhumerus -57.2999 -37.2239 116.438
lradius 107.11
lwrist 75.4995
lhand 21.6245 40.7619
lfingers 7.12502
lthumb 46.0453 -296.162
rfemur -59.056 -32.886 15.9473
rtibia 68.7187
rfoot -7.20321 2.19092
rtoes 6.06307
lfemur -21.8563 34.5869 -6.78821
ltibia 72.0583
lfoot -29.0358 23.6962
ltoes -19.6655
1631
root -4.14949 14.415 -22.286 4.27858 48.6803 0.812919
lowerback 15.9797 -0.344293 -7.45952
upperback -2.33097 -1.63756 2.85516
thorax -11.3273 -0.164827 7.85352
lowerneck 4.95606 -13.4658 -15.0863
upperneck 0.890466 -18.835 11.4421
head 1.97279 -9.54557 5.30186
rclavicle 2.23633e-015 3.18055e-014
rhumerus 5.28672 -11.2244 -65.3951
rradius 86.407
rwrist 23.6646
rhand -48.0423 -34.8396
rfingers 7.12502
rthumb -20.709 -63.7547
lclavicle 2.23633e-015 3.18055e-014
lhumerus -57.292 -37.3193 116.525
lradius 107.067
lwrist 75.5906
lhand 21.4206 40.8297
lfingers 7.12502
lthumb 45.8561 -296.016
rfemur -59.0064 -32.8634 16.0143
rtibia 68.7089
rfoot -7.11189 2.12587
rtoes 6.02237
lfemur -21.8956 34.5877 -6.6329
ltibia 72.3324
lfoot -29.1587 23.7642
ltoes -19.5766
1632
root -4.14841 14.4019 -22.3107 4.00755 48.6791 0.585569
lowerback 15.9364 -0.347247 -7.38089
upperback -2.32511 -1.6203 2.87279
thorax -11.2994 -0.162946 7.82111
lowerneck 4.97579 -13.4525 -15.0653
upperneck 0.840768 -18.8168 11.4497
head 1.95133 -9.53675 5.30647
rclavicle 1.04362e-014 -2.38542e-014
rhumerus 5.21521 -11.425 -65.489
rradius 86.4478
rwrist 23.822
rhand -48.0536 -34.828
rfingers 7.12502
rthumb -20.7199 -63.7419
lclavicle 1.04362e-014 -2.38542e-014
lhumerus -57.2937 -37.4156 116.604
lradius 107.024
lwrist 75.7641
lhand 21.1797 40.9394
lfingers 7.12502
lthumb 45.6324 -295.815
rfemur -58.9678 -32.8568 16.0884
rtibia 68.6984
rfoot -7.02834 2.09063
rtoes 5.97703
lfemur -21.9156 34.6463 -6.46526
ltibia 72.5877
lfoot -29.2804 23.7931
ltoes -19.5973
1633
root -4.14667 14.3891 -22.3342 3.76771 48.6731 0.380875
lowerback 15.8849 -0.350942 -7.303
upperback -2.32701 -1.60456 2.88493
thorax -11.2754 -0.161504 7.7832
lowerneck 4.98867 -13.4401 -15.0385
upperneck 0.817802 -18.7998 11.4474
head 1.93758 -9.52844 5.30584
rclavicle -1.52567e-014 -2.46493e-014
rhumerus 5.15842 -11.619 -65.5768
rradius 86.4516
rwrist 23.9635
rhand -48.0579 -34.7979
rfingers 7.12502
rthumb -20.724 -63.7113
lclavicle -1.52567e-014 -2.46493e-014
lhumerus -57.3054 -37.51 116.673
lradius 106.983
lwrist 75.9657
lhand 20.9674 41.0636
lfingers 7.12502
lthumb 45.4352 -295.61
rfemur -58.9494 -32.8701 16.162
rtibia 68.6913
rfoot -6.95085 2.09073
rtoes 5.91881
lfemur -21.9318 34.7542 -6.3009
ltibia 72.8286
lfoot -29.4043 23.7824
ltoes -19.7113
1634
root -4.14468 14.3765 -22.3564 3.56923 48.6698 0.207131
lowerback 15.8276 -0.35685 -7.23408
upperback -2.3388 -1.59429 2.89078
thorax -11.2581 -0.161636 7.74485
lowerneck 4.99469 -13.4299 -15.0075
upperneck 0.817773 -18.7856 11.4408
head 1.93128 -9.52144 5.30172
rclavicle 8.84592e-015 2.38542e-015
rhumerus 5.11413 -11.8023 -65.6606
rradius 86.4221
rwrist 24.0574
rhand -48.052 -34.753
rfingers 7.12502
rthumb -20.7183 -63.6671
lclavicle 8.84592e-015 2.38542e-015
lhumerus -57.328 -37.5994 116.733
lradius 106.948
lwrist 76.1423
lhand 20.8369 41.1738
lfingers 7.12502
lthumb 45.3139 -295.451
rfemur -58.9584 -32.9071 16.2297
rtibia 68.6922
rfoot -6.87879 2.12574
rtoes 5.84944
lfemur -21.9602 34.9015 -6.15297
ltibia 73.0611
lfoot -29.5345 23.732
ltoes -19.8875
1635
root -4.14288 14.3637 -22.3773 3.41473 48.6766 0.0663472
lowerback 15.7683 -0.366477 -7.17889
upperback -2.3607 -1.59263 2.89102
thorax -11.2495 -0.164393 7.71055
lowerneck 4.99426 -13.4222 -14.9741
upperneck 0.832738 -18.7745 11.4351
head 1.93076 -9.51593 5.29619
rclavicle -2.08227e-014 1.82882e-014
rhumerus 5.08134 -11.972 -65.7411
rradius 86.3665
rwrist 24.0796
rhand -48.0361 -34.7003
rfingers 7.12502
rthumb -20.7031 -63.616
lclavicle -2.08227e-014 1.82882e-014
lhumerus -57.3609 -37.6799 116.784
lradius 106.919
lwrist 76.256
lhand 20.8103 41.2491
lfingers 7.12502
lthumb 45.2891 -295.366
rfemur -58.9969 -32.9693 16.2891
rtibia 68.7043
rfoot -6.81232 2.18988
rtoes 5.77515
lfemur -22.0128 35.0772 -6.02844
ltibia 73.2911
lfoot -29.6747 23.6418
ltoes -20.0902
1636
root -4.14164 14.3507 -22.3968 3.30087 48.7001 -0.0433476
lowerback 15.7121 -0.381094 -7.13954
upperback -2.39102 -1.60177 2.88724
thorax -11.2501 -0.170634 7.68403
lowerneck 4.99074 -13.417 -14.9407
upperneck 0.850196 -18.767 11.4363
head 1.9326 -9.51213 5.29196
rclavicle -7.37243e-014 -1.39149e-014
rhumerus 5.06039 -12.1277 -65.8177
rradius 86.2939
rwrist 24.0193
rhand -48.0127 -34.647
rfingers 7.12502
rthumb -20.6806 -63.5652
lclavicle -7.37243e-014 -1.39149e-014
lhumerus -57.4028 -37.7469 116.824
lradius 106.902
lwrist 76.292
lhand 20.8774 41.2863
lfingers 7.12502
lthumb 45.3516 -295.354
rfemur -59.0619 -33.0572 16.3393
rtibia 68.7289
rfoot -6.75196 2.27484
rtoes 5.70324
lfemur -22.0953 35.2693 -5.9292
ltibia 73.5224
lfoot -29.8252 23.5152
ltoes -20.2908
1637
root -4.14128 14.3374 -22.415 3.21827 48.7444 -0.128314
lowerback 15.6646 -0.401413 -7.11435
upperback -2.42661 -1.62236 2.88152
thorax -11.2595 -0.180796 7.66696
lowerneck 4.9878 -13.4148 -14.9084
upperneck 0.858164 -18.7633 11.4469
head 1.93307 -9.51023 5.29069
rclavicle 4.97956e-014 -7.15625e-015
rhumerus 5.05196 -12.273 -65.8894
rradius 86.2138
rwrist 23.8836
rhand -47.9861 -34.6017
rfingers 7.12502
rthumb -20.6551 -63.5227
lclavicle 4.97956e-014 -7.15625e-015
lhumerus -57.4509 -37.797 116.853
lradius 106.897
lwrist 76.2591
lhand 21.0027 41.2935
lfingers 7.12502
lthumb 45.468 -295.394
rfemur -59.1455 -33.1689 16.3812
rtibia 68.7647
rfoot -6.69803 2.37126
rtoes 5.63912
lfemur -22.2063 35.4673 -5.85097
ltibia 73.7562
lfoot -29.983 23.3585
ltoes -20.4728
1638
root -4.14196 14.3241 -22.432 3.15483 48.8105 -0.196324
lowerback 15.6304 -0.427145 -7.10012
upperback -2.46323 -1.6533 2.87608
thorax -11.2757 -0.194693 7.65977
lowerneck 4.98894 -13.4154 -14.8781
upperneck 0.846646 -18.7632 11.4682
head 1.92883 -9.51023 5.29349
rclavicle 6.88789e-014 1.19271e-014
rhumerus 5.05666 -12.4143 -65.9551
rradius 86.135
rwrist 23.6951
rhand -47.9622 -34.5711
rfingers 7.12502
rthumb -20.632 -63.4945
lclavicle 6.88789e-014 1.19271e-014
lhumerus -57.5012 -37.8289 116.872
lradius 106.906
lwrist 76.182
lhand 21.1384 41.2893
lfingers 7.12502
lthumb 45.5941 -295.449
rfemur -59.2375 -33.3011 16.4164
rtibia 68.8088
rfoot -6.65045 2.47137
rtoes 5.58551
lfemur -22.3384 35.6626 -5.78613
ltibia 73.9914
lfoot -30.1446 23.1787
ltoes -20.6297
